HIERARCHY
ROOT Hips
{
  OFFSET -69.4423 88.0299 51.6846
  CHANNELS 6 Xposition Yposition Zposition Zrotation Xrotation Yrotation
  JOINT Spine
  {
    OFFSET 12.0259 -0.162853 1.93176e-005
    CHANNELS 3 Zrotation Xrotation Yrotation
    JOINT Spine1
    {
      OFFSET 15.3169 -0.0121909 0
      CHANNELS 3 Zrotation Xrotation Yrotation
      JOINT Spine2
      {
        OFFSET 15.3176 -0.0121922 0
        CHANNELS 3 Zrotation Xrotation Yrotation
        JOINT Neck
        {
          OFFSET 19.9142 1.56236 0
          CHANNELS 3 Zrotation Xrotation Yrotation
          JOINT Head
          {
            OFFSET 6.92646 0 0
            CHANNELS 3 Zrotation Xrotation Yrotation
            End Site
            {
              OFFSET 20.7666 0 0
            }
          }
          JOINT LeftShoulder
          {
            OFFSET -4.94072 -1.14703 8.14416
            CHANNELS 3 Zrotation Xrotation Yrotation
            JOINT LeftArm
            {
              OFFSET 14.108 0 -2.74767e-005
              CHANNELS 3 Zrotation Xrotation Yrotation
              JOINT LeftForeArm
              {
                OFFSET 28.5802 -0.0783412 -0.0284884
                CHANNELS 3 Zrotation Xrotation Yrotation
                JOINT LeftHand
                {
                  OFFSET 27.092 0 0
                  CHANNELS 3 Zrotation Xrotation Yrotation
                  End Site
                  {
                    OFFSET 9.55928 -0.186424 0.145352
                  }
                }
              }
            }
          }
          JOINT RightShoulder
          {
            OFFSET -7.15748 -1.33027 -6.24935
            CHANNELS 3 Zrotation Xrotation Yrotation
            JOINT RightArm
            {
              OFFSET 14.108 0 1.82997e-005
              CHANNELS 3 Zrotation Xrotation Yrotation
              JOINT RightForeArm
              {
                OFFSET 28.5802 -0.0707221 2.30684e-005
                CHANNELS 3 Zrotation Xrotation Yrotation
                JOINT RightHand
                {
                  OFFSET 27.092 0 -1.30073e-005
                  CHANNELS 3 Zrotation Xrotation Yrotation
                  End Site
                  {
                    OFFSET 9.55929 -0.186417 -0.145354
                  }
                }
              }
            }
          }
        }
      }
    }
  }
  JOINT LeftUpLeg
  {
    OFFSET 0.00499725 -0.534999 8.837
    CHANNELS 3 Zrotation Xrotation Yrotation
    JOINT LeftLeg
    {
      OFFSET 39.9035 -0.00124594 0.000252775
      CHANNELS 3 Zrotation Xrotation Yrotation
      JOINT LeftFoot
      {
        OFFSET 39.6689 0 0
        CHANNELS 3 Zrotation Xrotation Yrotation
        JOINT LeftToe
        {
          OFFSET 10.1624 13.6296 0
          CHANNELS 3 Zrotation Xrotation Yrotation
          End Site
          {
            OFFSET 8.38147 0 0
          }
        }
      }
    }
  }
  JOINT RightUpLeg
  {
    OFFSET 0.00499725 -0.535 -8.837
    CHANNELS 3 Zrotation Xrotation Yrotation
    JOINT RightLeg
    {
      OFFSET 39.9036 -0.000268477 0.000106433
      CHANNELS 3 Zrotation Xrotation Yrotation
      JOINT RightFoot
      {
        OFFSET 39.6689 1.17892e-005 0
        CHANNELS 3 Zrotation Xrotation Yrotation
        JOINT RightToe
        {
          OFFSET 10.1624 13.6296 0
          CHANNELS 3 Zrotation Xrotation Yrotation
          End Site
          {
            OFFSET 8.38147 0 0
          }
        }
      }
    }
  }
}
MOTION
Frames:	8
Frame Time:	0.0333333
28.3097 88.0525 -8.38315 90.7007 43.7057 6.59954 1.46339 -0.131895 -0.668643 2.92517 -0.280258 -1.33354 2.92516 -0.280283 -1.33354 -17.0005 -1.0342 -10.9063 35.5228 -1.18316 10.008 -164.787 -2.81703 -94.2316 -27.2654 2.23301 79.0899 -27.974 3.43734 -17.4822 4.22705 -82.1259 6.32993 -164.853 -5.22827 74.784 -19.9835 -4.73955 -83.2739 -30.6793 -4.80217 18.3009 4.29435 85.7545 -4.14079 8.27693 -2.09426 171.104 -6.93826 1.0638 -1.03629 3.54364 8.75806 0.0395407 90 -1.11319e-014 -6.36111e-015 -34.8396 -1.68466 171.713 -44.1768 -0.11924 0.254895 -2.47778 7.48082 1.2498 90 -1.74931e-014 -1.59028e-014 
25.9644 87.99 -6.34294 91.1793 44.9123 6.77505 1.38035 -0.463099 -0.681885 2.75525 -0.941969 -1.35235 2.75524 -0.94197 -1.35235 -17.2242 -0.928274 -11.1976 35.6247 -0.990567 10.1202 -164.539 -2.75891 -94.5358 -28.2843 1.49416 78.6722 -28.2112 3.48586 -17.6302 4.54888 -82.2111 6.62254 -164.65 -5.25004 74.4904 -19.7196 -4.88237 -82.9684 -30.3404 -4.7049 18.1311 3.84583 85.2368 -3.69133 12.2586 -4.67247 171.067 -1.72322 1.03932 -1.27853 1.65119 8.22335 0.316507 90 3.18055e-015 3.18055e-015 -34.4987 1.06483 171.342 -33.6293 -0.0731695 0.375882 -5.95352 8.3095 2.17004 90 -1.37161e-014 -1.90833e-014 
23.4172 87.8322 -4.23199 91.5829 46.3122 6.8385 1.48618 -0.714779 -0.787224 2.96277 -1.44919 -1.55566 2.96276 -1.44922 -1.55565 -18.1201 -1.05032 -10.9406 35.6975 -1.17928 10.3963 -163.616 -2.9148 -94.1825 -29.8675 0.603139 77.2703 -28.4864 3.54111 -17.7829 4.85606 -82.8961 6.96783 -163.745 -5.47607 74.843 -18.653 -3.885 -83.2027 -29.9353 -4.5832 17.8962 3.3798 84.5462 -3.22767 13.7086 -7.02714 171.146 -1.69826 1.02796 -1.30275 1.74454 6.64201 0.227105 90 9.54166e-015 6.36111e-015 -33.2372 5.71454 171.085 -26.3415 -0.108673 0.505479 -0.388574 10.5147 1.54546 90 -1.07344e-014 -6.36111e-015 
20.7284 87.6088 -2.04664 91.587 47.115 6.6736 1.52635 -0.866266 -0.699687 3.04255 -1.75037 -1.37616 3.04254 -1.7504 -1.37617 -18.1051 -1.05623 -11.1087 35.0879 -1.32787 10.2863 -163.615 -2.93508 -94.3306 -30.5425 -0.0602674 77.1289 -28.5786 3.56136 -17.8553 4.68076 -82.6949 6.79129 -163.768 -5.52157 74.6783 -18.0805 -3.97077 -83.1278 -29.4794 -4.45251 17.6538 3.46678 84.6838 -3.32227 15.6475 -8.69049 171.922 -1.68277 1.03657 -1.29567 1.39696 6.28842 0.215004 90 6.36111e-015 3.18055e-015 -32.5638 6.2149 170.981 -24.3003 -0.118357 0.550989 3.10567 10.2845 0.768345 90 -3.97569e-015 1.59028e-014 
17.8017 87.2946 0.188124 91.4744 46.0649 6.73898 1.51905 -0.687633 -0.660943 3.03043 -1.39209 -1.30339 3.03042 -1.39208 -1.3034 -18.3934 -0.950226 -10.9765 35.4325 -1.31555 9.92795 -163.31 -2.83443 -94.2165 -30.467 -0.19219 77.5995 -28.6764 3.57877 -17.9186 4.63829 -82.268 6.70049 -163.47 -5.39683 74.7851 -18.0781 -4.97402 -83.2884 -29.2671 -4.39494 17.5591 3.69031 85.0306 -3.58564 18.149 -8.59351 172.283 -1.70778 1.06833 -1.23456 0.980304 6.81379 0.237388 90 -7.95139e-015 -6.36111e-015 -33.2012 2.5109 171.233 -26.6115 -0.11871 0.476764 -1.44024 5.12755 0.813634 90 1.94809e-014 6.36111e-015 
14.5763 87.2768 2.44929 91.0314 45.5847 6.98983 1.48379 -0.624802 -0.602788 2.96121 -1.26454 -1.18911 2.9612 -1.26452 -1.18912 -18.2741 -0.867451 -10.5965 35.4915 -1.48116 9.13986 -163.416 -2.61569 -93.8908 -29.939 0.150244 78.688 -28.6312 3.58036 -17.8978 4.11797 -81.7552 6.18989 -163.554 -5.10075 75.069 -17.2276 -5.67064 -83.5224 -28.3379 -4.14772 17.0969 3.38104 84.4765 -3.26641 20.6676 -8.99785 172.97 -1.68986 1.09336 -1.17125 -1.58161 7.87949 0.48222 90 -1.90833e-014 -6.36111e-015 -32.3499 2.51001 172.168 -30.0486 -0.149474 0.415219 -3.01276 3.5922 0.710367 90 6.31141e-015 3.18055e-015 
11.2321 87.5844 4.71115 90.8906 45.2661 5.75078 1.297 -0.632821 -0.23395 2.59166 -1.27025 -0.453392 2.59166 -1.27027 -0.453398 -18.4366 -0.403464 -10.4177 36.8922 -0.981845 8.20942 -163.243 -2.18671 -93.8501 -28.404 1.17218 80.9833 -28.566 3.56773 -17.862 4.51652 -81.811 6.60842 -163.335 -4.51517 75.0647 -15.7301 -6.76262 -83.6099 -27.0657 -3.8147 16.4499 2.7997 83.7045 -2.66063 22.8591 -8.99532 174.782 -1.6666 1.10134 -1.12278 -6.23215 9.16302 1.10997 90 -3.18055e-015 -1.59028e-014 -31.7212 1.49192 173.708 -32.2 -0.179337 0.362065 -4.30464 2.48909 0.609116 90 -8.74653e-015 -1.27222e-014 
7.71939 88.108 6.96828 90.5486 44.3087 4.62472 1.24525 -0.504142 0.131507 2.49181 -1.00494 0.2741 2.4918 -1.00493 0.274089 -18.5503 -0.217962 -10.0098 36.8648 -1.39242 6.76335 -163.14 -1.94884 -93.4752 -26.621 1.97461 83.0523 -27.7769 3.40263 -17.4548 4.66906 -82.1408 6.77306 -163.175 -4.11069 75.3094 -13.0883 -6.93981 -83.4681 -25.4043 -3.4104 15.6004 2.45534 82.6405 -2.31069 19.6551 -7.73724 175.489 -11.0257 1.18949 -0.691914 -12.5575 8.92013 1.54733 90 -3.81667e-014 -2.54444e-014 -29.7648 0.0600213 175.635 -33.3862 -0.244122 0.278212 -4.70651 1.05753 0.298615 90 -1.19271e-014 -2.22639e-014 
